HIERARCHY
ROOT pelvis
{
	OFFSET 0.000000 0.000000 0.726372
	CHANNELS 6 Xposition Yposition Zposition Xrotation Yrotation Zrotation
	JOINT spine
	{
		OFFSET 0.000000 0.000000 0.000000
		CHANNELS 6 Xposition Yposition Zposition Xrotation Yrotation Zrotation
		JOINT spine.001
		{
			OFFSET 0.000000 -0.014005 0.267227
			CHANNELS 3 Xrotation Yrotation Zrotation
			JOINT neck
			{
				OFFSET 0.000000 0.032612 0.265599
				CHANNELS 6 Xposition Yposition Zposition Xrotation Yrotation Zrotation
				JOINT face
				{
					OFFSET 0.000000 0.003636 0.208292
					CHANNELS 6 Xposition Yposition Zposition Xrotation Yrotation Zrotation
					End Site
					{
						OFFSET 0.000000 -0.022751 -0.007803
					}
				}
			}
			JOINT shoulder.L
			{
				OFFSET 0.000000 0.032612 0.265599
				CHANNELS 6 Xposition Yposition Zposition Yrotation Xrotation Zrotation
				JOINT upper_arm.L
				{
					OFFSET 0.167939 0.000000 0.000000
					CHANNELS 6 Xposition Yposition Zposition Xrotation Yrotation Zrotation
					JOINT forearm.L
					{
						OFFSET 0.279234 0.000115 0.000950
						CHANNELS 6 Xposition Yposition Zposition Xrotation Yrotation Zrotation
						End Site
						{
							OFFSET 0.244544 -0.004163 -0.001310
						}
					}
				}
			}
			JOINT shoulder.R
			{
				OFFSET 0.000000 0.032612 0.265599
				CHANNELS 6 Xposition Yposition Zposition Yrotation Xrotation Zrotation
				JOINT upper_arm.R
				{
					OFFSET -0.167939 0.000000 0.000000
					CHANNELS 6 Xposition Yposition Zposition Xrotation Yrotation Zrotation
					JOINT forearm.R
					{
						OFFSET -0.275579 0.000115 0.000950
						CHANNELS 6 Xposition Yposition Zposition Xrotation Yrotation Zrotation
						End Site
						{
							OFFSET -0.242673 -0.004131 -0.001310
						}
					}
				}
			}
		}
	}
	JOINT pelvis.L
	{
		OFFSET 0.000000 0.000000 0.000000
		CHANNELS 6 Xposition Yposition Zposition Yrotation Xrotation Zrotation
		End Site
		{
			OFFSET 0.101522 0.000000 0.000000
		}
	}
	JOINT pelvis.R
	{
		OFFSET 0.000000 0.000000 0.000000
		CHANNELS 6 Xposition Yposition Zposition Yrotation Xrotation Zrotation
		End Site
		{
			OFFSET -0.101522 0.000000 0.000000
		}
	}
	JOINT thigh.L
	{
		OFFSET 0.101522 0.000000 0.000000
		CHANNELS 6 Xposition Yposition Zposition Xrotation Yrotation Zrotation
		JOINT shin.L
		{
			OFFSET 0.018156 0.000000 -0.346438
			CHANNELS 6 Xposition Yposition Zposition Xrotation Yrotation Zrotation
			JOINT foot.L
			{
				OFFSET 0.016285 0.000000 -0.310744
				CHANNELS 3 Xrotation Yrotation Zrotation
				End Site
				{
					OFFSET 0.014621 -0.149079 -0.062601
				}
			}
			JOINT heel.02.L
			{
				OFFSET 0.016285 0.000000 -0.310744
				CHANNELS 3 Xrotation Yrotation Zrotation
				End Site
				{
					OFFSET 0.078147 0.034181 -0.064286
				}
			}
		}
	}
	JOINT thigh.R
	{
		OFFSET -0.101522 0.000000 0.000000
		CHANNELS 6 Xposition Yposition Zposition Xrotation Yrotation Zrotation
		JOINT shin.R
		{
			OFFSET -0.018323 0.000000 -0.349626
			CHANNELS 6 Xposition Yposition Zposition Xrotation Yrotation Zrotation
			JOINT foot.R
			{
				OFFSET -0.016237 0.000000 -0.309811
				CHANNELS 3 Xrotation Yrotation Zrotation
				End Site
				{
					OFFSET -0.016338 -0.166583 -0.069951
				}
			}
			JOINT heel.02.R
			{
				OFFSET -0.016237 0.000000 -0.309811
				CHANNELS 3 Xrotation Yrotation Zrotation
				End Site
				{
					OFFSET -0.081133 0.034181 -0.061868
				}
			}
		}
	}
}
MOTION
Frames: 9
Frame Time: 0.041667
-0.018817 0.057495 0.713699 -0.000000 0.000000 1.226790 -0.000000 -0.000000 -0.000000 -11.224051 -0.598427 -0.090633 9.990187 -0.372350 -3.033936 -0.000000 0.032611 0.265599 12.453982 -5.407100 -13.523840 0.000000 0.003636 0.208292 0.856932 -0.000000 0.000000 0.000000 0.032612 0.265599 2.660352 0.007583 -0.326502 0.167939 0.000000 0.000000 13.572473 73.318502 -18.178443 0.279234 0.000115 0.000950 2.243419 10.202474 -24.187554 0.000000 0.032612 0.265599 2.710785 0.007873 -0.332716 -0.167939 0.000000 0.000000 7.236552 -77.769053 9.001057 -0.275579 0.000115 0.000950 2.865158 -12.901909 24.093441 -0.000000 -0.000000 0.000000 -0.426714 -0.000000 0.000040 -0.000000 -0.000000 0.000000 -0.426713 0.000000 -0.000000 0.101519 -0.000000 0.000756 0.305805 -0.799996 0.018155 0.018156 -0.000000 -0.346438 0.634202 2.753171 0.018020 -6.180078 -3.756820 6.419907 -15.590214 48.679554 39.649709 -0.101519 -0.000000 -0.000756 -2.047463 -2.805696 0.057243 -0.018323 -0.000000 -0.349626 6.142325 -3.719319 -0.122799 -6.947829 6.147262 -10.903736 -20.098597 -49.967393 -40.585561 
-0.019203 0.056499 0.713637 -0.000000 0.000000 2.597215 0.000000 -0.000000 0.000000 -11.460866 -0.676446 -0.103880 9.996515 -0.218574 -1.780460 -0.000000 0.032611 0.265600 12.323074 -5.012813 -12.209925 0.000000 0.003636 0.208292 0.729154 0.000002 0.000001 0.000000 0.032611 0.265600 2.429852 0.006329 -0.298267 0.167939 -0.000000 0.000000 13.208705 73.680939 -17.582478 0.279234 0.000115 0.000950 1.926416 10.015444 -21.017262 0.000000 0.032611 0.265600 2.480243 0.006595 -0.304478 -0.167939 -0.000000 0.000000 11.686151 -77.328048 14.602350 -0.275579 0.000115 0.000950 2.681355 -11.816716 24.772381 -0.000000 0.000000 0.000000 -0.499141 -0.000001 -0.000129 -0.000000 0.000000 0.000000 -0.499174 0.000000 -0.000000 0.101518 -0.000000 0.000884 0.082196 -0.818601 0.004893 0.018156 -0.000000 -0.346438 0.967499 2.638807 0.028456 -5.813632 -4.316907 7.695533 -16.524459 49.143395 39.841624 -0.101518 -0.000000 -0.000884 -1.633339 -3.051206 0.042161 -0.018323 -0.000000 -0.349626 5.995637 -3.401139 -0.136548 -6.788887 6.546854 -11.764718 -20.988705 -50.495001 -41.206241 
-0.019034 0.056240 0.713528 -0.000000 0.000000 3.617134 0.000000 -0.000000 0.000000 -11.588244 -0.746068 -0.115421 9.999550 -0.074900 -0.609957 0.000000 0.032611 0.265599 12.175908 -4.788831 -11.253693 -0.000000 0.003636 0.208292 0.449938 0.000000 0.000001 0.000000 0.032611 0.265600 2.130279 0.004863 -0.261453 0.167940 0.000000 0.000000 12.520923 74.175199 -16.529551 0.279234 0.000115 0.000950 1.648944 9.750391 -18.324199 0.000000 0.032611 0.265600 2.180713 0.005096 -0.267736 -0.167939 0.000000 0.000000 15.645224 -76.517052 19.781176 -0.275579 0.000115 0.000950 2.566046 -11.447893 24.505272 0.000000 -0.000000 0.000000 -0.650591 -0.000000 0.000071 -0.000000 -0.000000 0.000000 -0.650590 0.000000 0.000000 0.101516 -0.000000 0.001153 -0.161971 -0.910671 -0.009770 0.018156 -0.000000 -0.346438 1.226904 2.782769 0.034545 -5.052080 -4.782940 8.956260 -16.866507 49.341922 40.015787 -0.101516 -0.000000 -0.001153 -1.514182 -3.246615 0.036500 -0.018323 -0.000000 -0.349626 6.154987 -3.021709 -0.160605 -7.017461 6.942289 -12.436457 -21.930062 -51.015742 -41.776046 
-0.018484 0.056661 0.713445 -0.000000 0.000000 4.298939 0.000000 0.000000 -0.000000 -11.533994 -0.844125 -0.130182 9.999376 0.085169 0.693636 -0.000000 0.032611 0.265599 11.673428 -4.653282 -11.098998 -0.000000 0.003636 0.208292 0.223814 0.000001 -0.000000 -0.000000 0.032611 0.265599 1.826324 0.003575 -0.224214 0.167939 0.000000 0.000000 11.208455 74.921930 -14.615609 0.279234 0.000115 0.000950 1.365129 8.838944 -16.708654 0.000000 0.032611 0.265599 1.876756 0.003774 -0.230436 -0.167939 0.000000 0.000000 16.691353 -75.973055 21.290559 -0.275579 0.000115 0.000950 2.711852 -11.855235 24.976583 0.000000 -0.000000 0.000000 -0.831785 -0.000000 -0.000057 0.000000 -0.000000 0.000000 -0.831784 0.000000 0.000000 0.101511 -0.000000 0.001474 -0.313485 -0.965659 -0.019063 0.018156 0.000000 -0.346438 1.201925 2.942844 0.032160 -4.195973 -5.008550 9.790645 -16.591911 49.293281 40.238017 -0.101512 -0.000000 -0.001474 -1.557933 -3.440274 0.034919 -0.018323 -0.000000 -0.349626 6.364024 -2.484034 -0.195972 -7.286686 7.200757 -12.813463 -22.473829 -51.339236 -42.264446 
-0.017688 0.057270 0.713221 -0.000000 0.000000 4.880238 0.000000 0.000000 0.000000 -11.381542 -0.949494 -0.145139 9.995096 0.261886 2.133592 0.000000 0.032611 0.265599 10.964125 -4.523932 -11.530460 0.000000 0.003636 0.208292 0.080233 0.000001 0.000001 0.000000 0.032611 0.265600 1.512588 0.002453 -0.185777 0.167939 0.000000 -0.000000 8.931260 76.037518 -11.436842 0.279234 0.000115 0.000950 1.055271 7.163687 -16.145088 0.000000 0.032611 0.265600 1.563018 0.002619 -0.191928 -0.167939 0.000000 -0.000000 15.134089 -75.998688 19.315056 -0.275579 0.000115 0.000950 3.015510 -12.336786 26.693013 -0.000000 0.000000 0.000000 -0.945869 0.000001 0.000140 -0.000000 0.000000 0.000000 -0.945867 0.000000 0.000000 0.101508 -0.000000 0.001676 -0.399022 -0.891270 -0.024007 0.018156 0.000000 -0.346438 1.009413 2.906001 0.027334 -3.621213 -4.963107 9.946910 -15.926772 49.089051 40.489006 -0.101508 0.000000 -0.001676 -1.586282 -3.594046 0.033422 -0.018323 -0.000000 -0.349626 6.486677 -1.972312 -0.228746 -7.525346 7.345011 -12.979034 -22.678502 -51.495494 -42.640547 
-0.016728 0.057775 0.712726 -0.000000 0.000000 5.697340 0.000000 0.000000 -0.000000 -11.225175 -1.003161 -0.151943 9.988127 0.409764 3.339166 -0.000000 0.032611 0.265599 10.342511 -4.410490 -11.916114 0.000000 0.003636 0.208292 0.013667 -0.000000 0.000004 0.000000 0.032612 0.265599 1.153884 0.001428 -0.141659 0.167940 -0.000000 -0.000000 5.143472 77.265217 -6.470103 0.279234 0.000115 0.000950 0.798089 5.517985 -16.277464 0.000000 0.032612 0.265599 1.204274 0.001554 -0.147838 -0.167939 0.000000 -0.000000 13.387156 -76.053801 17.087904 -0.275579 0.000115 0.000950 3.258715 -12.555523 28.362279 -0.000000 -0.000000 0.000000 -0.965718 -0.000001 -0.000061 -0.000000 -0.000000 0.000000 -0.965717 0.000000 -0.000000 0.101508 0.000000 0.001711 -0.554768 -0.722257 -0.032561 0.018156 -0.000000 -0.346438 0.898307 2.713944 0.025831 -3.378753 -4.663197 9.410797 -15.115854 48.794383 40.649813 -0.101508 0.000000 -0.001711 -1.489183 -3.652212 0.030618 -0.018323 -0.000000 -0.349626 6.483079 -1.688810 -0.244660 -7.764328 7.541083 -13.242170 -23.004070 -51.696455 -43.006320 
-0.015676 0.058435 0.712135 -0.000000 0.000000 6.911463 0.000000 0.000000 0.000000 -11.050960 -0.987496 -0.148035 9.983398 0.482102 3.929434 0.000000 0.032611 0.265599 9.849979 -4.340151 -11.916702 -0.000000 0.003636 0.208292 0.086711 0.000000 0.000001 0.000000 0.032612 0.265599 0.790615 0.000670 -0.097120 0.167939 -0.000000 0.000000 0.614004 78.161707 -0.801783 0.279234 0.000115 0.000950 0.669295 4.632978 -16.652910 0.000000 0.032612 0.265599 0.841086 0.000758 -0.103268 -0.167939 0.000000 0.000000 13.350231 -75.648983 17.162751 -0.275579 0.000115 0.000950 3.375380 -12.799538 28.795808 -0.000000 -0.000000 0.000000 -0.961143 -0.000001 -0.000070 -0.000000 -0.000000 0.000000 -0.961141 0.000000 0.000000 0.101508 0.000000 0.001703 -0.895122 -0.536183 -0.051088 0.018156 -0.000000 -0.346438 0.996113 2.504844 0.030463 -3.277762 -4.168000 8.386237 -14.263157 48.401948 40.574445 -0.101508 0.000000 -0.001703 -1.294769 -3.615883 0.027033 -0.018323 0.000000 -0.349626 6.381699 -1.642402 -0.243412 -7.918903 7.904884 -13.864781 -23.777400 -52.095902 -43.507714 
-0.014584 0.059495 0.711802 -0.000000 0.000000 8.307688 0.000000 0.000000 0.000000 -10.835655 -0.954482 -0.141251 9.983546 0.479520 3.908479 0.000000 0.032611 0.265600 9.434315 -4.282275 -11.660004 -0.000000 0.003636 0.208292 0.287743 0.000000 -0.000001 -0.000000 0.032611 0.265600 0.527148 0.000300 -0.064853 0.167939 -0.000000 -0.000000 -2.493107 78.635865 2.992831 0.279234 0.000115 0.000950 0.641893 4.407226 -16.936216 0.000000 0.032611 0.265599 0.577578 0.000359 -0.070996 -0.167939 0.000000 -0.000000 14.122152 -75.035973 18.342550 -0.275579 0.000115 0.000950 3.488891 -13.383613 28.386312 -0.000000 -0.000000 0.000000 -0.991086 -0.000001 -0.000087 -0.000000 -0.000000 0.000000 -0.991084 0.000000 -0.000001 0.101507 -0.000000 0.001756 -1.359212 -0.347378 -0.075346 0.018156 -0.000000 -0.346438 1.219394 2.316986 0.039289 -3.212171 -3.623963 7.234148 -13.450179 47.948266 40.289681 -0.101507 -0.000000 -0.001756 -1.111169 -3.532944 0.024005 -0.018323 0.000000 -0.349626 6.273959 -1.712164 -0.235475 -7.952087 8.383537 -14.762822 -24.861837 -52.618336 -44.097716 
-0.013523 0.060627 0.711936 -0.000000 0.000000 9.426090 0.000000 0.000000 0.000000 -10.643418 -0.959231 -0.140310 9.986128 0.441064 3.594859 -0.000000 0.032612 0.265599 9.187440 -4.202172 -11.313759 -0.000000 0.003636 0.208292 0.463676 0.000000 -0.000002 0.000000 0.032612 0.265599 0.410775 0.000180 -0.050428 0.167939 -0.000000 0.000000 -3.398291 78.881759 4.078242 0.279234 0.000115 0.000950 0.650978 4.442364 -17.030247 0.000000 0.032612 0.265599 0.461206 0.000227 -0.056620 -0.167939 0.000000 -0.000000 14.146323 -74.868934 18.427758 -0.275579 0.000115 0.000950 3.660521 -14.062018 28.267701 -0.000000 0.000000 0.000000 -1.043436 0.000001 0.000066 -0.000000 0.000000 0.000000 -1.043434 0.000000 0.000000 0.101505 -0.000000 0.001849 -1.736967 -0.155394 -0.093387 0.018156 -0.000000 -0.346438 1.394245 2.135887 0.047128 -3.211643 -3.214427 6.344368 -12.852223 47.593585 40.041629 -0.101505 -0.000000 -0.001849 -1.016255 -3.449578 0.022697 -0.018323 -0.000000 -0.349626 6.259177 -1.791008 -0.230611 -8.010345 8.819904 -15.563179 -25.827534 -53.054464 -44.537423 
